<?xml version="1.0" encoding="UTF-8" standalone="no"?>
<!-- Created with Inkscape (http://www.inkscape.org/) -->

<svg
   xmlns:dc="http://purl.org/dc/elements/1.1/"
   xmlns:cc="http://creativecommons.org/ns#"
   xmlns:rdf="http://www.w3.org/1999/02/22-rdf-syntax-ns#"
   xmlns:svg="http://www.w3.org/2000/svg"
   xmlns="http://www.w3.org/2000/svg"
   xmlns:sodipodi="http://sodipodi.sourceforge.net/DTD/sodipodi-0.dtd"
   xmlns:inkscape="http://www.inkscape.org/namespaces/inkscape"
   width="210mm"
   height="297mm"
   viewBox="0 0 210 297"
   version="1.1"
   id="svg21759"
   inkscape:version="0.92.4 (5da689c313, 2019-01-14)"
   sodipodi:docname="pizza box.svg">
  <defs
     id="defs21753">
    <clipPath
       clipPathUnits="userSpaceOnUse"
       id="clipPath18">
      <path
         d="M 0,800 H 650 V 0 H 0 Z"
         id="path16"
         inkscape:connector-curvature="0" />
    </clipPath>
    <clipPath
       clipPathUnits="userSpaceOnUse"
       id="clipPath6722">
      <path
         d="M 0,800 H 650 V 0 H 0 Z"
         id="path6720"
         inkscape:connector-curvature="0" />
    </clipPath>
    <clipPath
       clipPathUnits="userSpaceOnUse"
       id="clipPath13902">
      <path
         d="M 0,800 H 650 V 0 H 0 Z"
         id="path13900"
         inkscape:connector-curvature="0" />
    </clipPath>
    <clipPath
       clipPathUnits="userSpaceOnUse"
       id="clipPath20442">
      <path
         d="M 0,800 H 650 V 0 H 0 Z"
         id="path20440"
         inkscape:connector-curvature="0" />
    </clipPath>
    <clipPath
       clipPathUnits="userSpaceOnUse"
       id="clipPath20662">
      <path
         d="M 0,800 H 650 V 0 H 0 Z"
         id="path20660"
         inkscape:connector-curvature="0" />
    </clipPath>
    <clipPath
       id="clipPath1014"
       clipPathUnits="userSpaceOnUse">
      <path
         inkscape:connector-curvature="0"
         id="path1012"
         d="M 0,953.303 H 925.484 V 0 H 0 Z" />
    </clipPath>
    <clipPath
       id="clipPath11793"
       clipPathUnits="userSpaceOnUse">
      <path
         inkscape:connector-curvature="0"
         id="path11791"
         d="M 0,833.76 H 1059.617 V 0 H 0 Z" />
    </clipPath>
    <clipPath
       id="clipPath12164"
       clipPathUnits="userSpaceOnUse">
      <path
         inkscape:connector-curvature="0"
         id="path12162"
         d="M 0,1116.228 H 1499.1 V 0 H 0 Z" />
    </clipPath>
  </defs>
  <sodipodi:namedview
     id="base"
     pagecolor="#ffffff"
     bordercolor="#666666"
     borderopacity="1.0"
     inkscape:pageopacity="0.0"
     inkscape:pageshadow="2"
     inkscape:zoom="0.3236263"
     inkscape:cx="64.797639"
     inkscape:cy="696.69438"
     inkscape:document-units="mm"
     inkscape:current-layer="g12156"
     showgrid="false"
     showguides="true"
     inkscape:guide-bbox="true"
     inkscape:window-width="1920"
     inkscape:window-height="1001"
     inkscape:window-x="-9"
     inkscape:window-y="-9"
     inkscape:window-maximized="1">
    <sodipodi:guide
       position="176.69565,253.35726"
       orientation="0,1"
       id="guide22306"
       inkscape:locked="false" />
    <sodipodi:guide
       position="235.5942,43.94019"
       orientation="0,1"
       id="guide22308"
       inkscape:locked="false" />
  </sodipodi:namedview>
  <metadata
     id="metadata21756">
    <rdf:RDF>
      <cc:Work
         rdf:about="">
        <dc:format>image/svg+xml</dc:format>
        <dc:type
           rdf:resource="http://purl.org/dc/dcmitype/StillImage" />
        <dc:title></dc:title>
      </cc:Work>
    </rdf:RDF>
  </metadata>
  <g
     inkscape:label="Layer 1"
     inkscape:groupmode="layer"
     id="layer1">
    <g
       transform="matrix(0.35277777,0,0,-0.35277777,-0.22062239,367.45296)"
       inkscape:label="eyes-line-art-5019556"
       id="g1006">
      <g
         id="g1008">
        <g
           transform="translate(-1819.604,207.06223)"
           inkscape:label="icons-4819657"
           id="g12156">
          <g
             id="g104"
             transform="matrix(3.3531192,0,0,3.3531192,2240.1337,361.43072)">
            <path
               d="m 0,0 h 1.771 c 0.591,-0.067 0.886,-0.364 0.886,-0.893 -0.919,-4.754 -2.558,-7.132 -4.921,-7.132 -1.574,0 -2.46,0.427 -2.657,1.287 v 0.891 C -4.396,-1.949 -2.756,0 0,0 m -10.728,-5.351 v -2.278 c 0,-0.794 1.182,-1.389 3.543,-1.784 h 4.036 l 4.429,1.388 c 0.196,-0.926 1.409,-1.388 3.641,-1.388 h 1.771 c 1.509,0 2.395,0.462 2.658,1.388 v 0.396 c -1.511,0 -2.264,0.461 -2.264,1.387 0.59,2.51 1.344,4.887 2.264,7.134 H 4.429 C 3.772,0.892 3.182,0.758 2.657,0.496 2.131,0.758 1.541,0.892 0.886,0.892 h -3.642 c -4.133,0 -6.79,-2.081 -7.972,-6.243 m -17.026,4.458 c 0.131,-0.593 0.426,-0.89 0.886,-0.89 h 2.755 c 0.591,0 0.886,0.297 0.886,0.89 L -23.719,0 l 0.886,0.496 h 3.543 c 0.655,-0.067 0.984,-0.364 0.984,-0.892 -5.905,-4.426 -9.482,-7.432 -10.727,-9.017 h 12.893 c 2.296,0 3.641,0.595 4.035,1.784 -0.263,0.924 -1.149,1.387 -2.658,1.387 -1.509,0 -2.263,-0.893 -2.263,-2.675 h -4.036 c -0.59,0 -0.885,0.297 -0.885,0.892 3.674,2.773 7.118,5.746 10.334,8.917 h -14.369 c -0.46,0 -1.051,-0.595 -1.772,-1.785 m -2.657,1.785 h -11.613 c -2.232,0 -3.413,-0.431 -3.544,-1.288 v -0.497 c 0.065,-0.593 0.36,-0.89 0.886,-0.89 h 2.658 c 0.59,0 0.885,0.297 0.885,0.89 L -41.63,0 l 0.984,0.496 h 3.936 V 0 c -1.51,-1.85 -5.216,-4.822 -11.121,-8.917 v -0.496 h 12.991 c 0.721,0 2.033,0.297 3.937,0.892 v 1.783 c -1.511,0.33 -2.396,0.496 -2.658,0.496 -0.984,-0.133 -1.738,-0.893 -2.263,-2.279 -0.46,-0.265 -1.051,-0.396 -1.772,-0.396 h -2.657 v 0.396 l 10.728,9.413 v 0.495 z m -22.341,2.774 c 0.918,-0.595 1.968,-1.057 3.149,-1.387 2.362,0.396 3.543,0.991 3.543,1.783 v 0.892 c -0.525,0 -1.411,0.297 -2.657,0.892 -2.1,0 -3.444,-0.728 -4.035,-2.18 m 3.543,-2.774 h -4.035 c -2.953,-4.097 -4.429,-6.936 -4.429,-8.521 v -0.892 l 3.15,-0.892 h 2.263 c 0.524,0 1.706,0.462 3.543,1.388 v 0.396 c -1.771,0 -2.657,0.297 -2.657,0.891 2.362,4.557 3.543,7.1 3.543,7.63 -0.329,0 -0.492,0.164 -0.492,0.495 z m -31.69,0.495 V 0.496 c 0.327,-0.926 1.213,-1.389 2.657,-1.389 h 0.886 c 0,4.493 4.33,6.739 12.991,6.739 2.099,0 3.575,-0.728 4.428,-2.18 V 3.171 c 0,-2.907 -2.656,-4.856 -7.971,-5.846 l -0.492,0.892 c 0.393,0 1.737,2.113 4.035,6.341 h -0.886 c -4.79,0 -7.185,-1.223 -7.185,-3.666 -4.133,-6.012 -6.2,-9.448 -6.2,-10.305 h 6.2 c 0.459,1.65 1.804,3.766 4.036,6.342 h 3.149 c 4.395,0 7.807,1.783 10.235,5.35 0,2.377 -2.526,3.731 -7.577,4.062 h -4.922 C -76.438,4.954 -80.899,3.303 -80.899,1.387 m 45.075,17.538 C -8.399,18.925 8.299,12.616 14.271,0 l 0.393,-3.964 c 0,-8.983 -11.155,-15.59 -33.462,-19.816 -8.136,-0.594 -13.648,-0.892 -16.534,-0.892 h -1.378 c -25.721,0 -41.926,5.383 -48.618,16.151 -0.92,1.783 -1.378,3.302 -1.378,4.557 0,11.163 12.499,18.495 37.497,21.997 2.493,0.33 6.954,0.628 13.385,0.892 m -50.882,7.63 c -3.609,-12.949 -8.53,-31.675 -14.763,-56.182 H 28.147 C 21.258,4.855 17.223,23.582 16.042,26.555 h -37.104 c -1.903,0 -7.84,-1.652 -17.813,-4.954 v 0.496 c 3.608,2.707 5.97,4.061 7.086,4.061 v 0.397 z m -15.156,-57.569 v -16.15 h 29.426 c 3.347,0 7.677,-0.166 12.992,-0.496 0.458,0.33 1.343,0.496 2.657,0.496 1.575,-0.331 3.083,-0.496 4.527,-0.496 l 0.886,0.496 c 0.524,-0.331 0.95,-0.496 1.28,-0.496 0.326,0 0.491,0.165 0.491,0.496 l 2.165,-0.496 c 1.246,0 2.887,0.165 4.921,0.496 1.575,-0.331 3.084,-0.496 4.528,-0.496 0.327,0 0.754,0.165 1.279,0.496 0.591,0 0.886,-0.166 0.886,-0.496 4.527,0.33 7.807,0.496 9.842,0.496 h 39.761 c 0.721,0 1.344,-0.166 1.869,-0.496 0.524,0.33 1.115,0.496 1.772,0.496 h 7.578 l 3.149,-0.496 0.395,0.892 v 15.754 h -46.848 c 0,-5.285 -4.494,-9.181 -13.483,-11.692 -1.968,-0.265 -3.904,-0.397 -5.807,-0.397 -7.676,0 -13.188,3.138 -16.533,9.415 l -0.887,2.674 z m 81.293,117.415 c 2.689,-0.395 4.035,-1.751 4.035,-4.061 0,-3.503 -5.807,-6.343 -17.42,-8.522 0,-0.859 8.464,-2.214 25.391,-4.063 6.89,-1.387 10.334,-3.335 10.334,-5.846 0,-4.096 -8.956,-7.992 -26.868,-11.691 -6.495,-0.926 -10.662,-1.819 -12.499,-2.675 0,-1.72 12.662,-3.965 37.99,-6.738 1.771,-1.19 2.657,-2.116 2.657,-2.776 0,-2.709 -7.283,-6.605 -21.849,-11.69 v -0.398 h 35.726 c 0.852,0 3.379,-11.096 7.578,-33.292 l 5.807,-25.167 c -0.263,-1.189 -0.394,-2.247 -0.394,-3.17 0,-0.333 0.131,-0.496 0.394,-0.496 l -0.394,-2.18 v -18.925 h -132.273 c -0.591,0 -0.886,0.297 -0.886,0.892 v 22.492 c 1.181,6.802 6.233,26.587 15.156,59.351 l 0.886,0.495 h 58.165 c 6.495,2.511 9.743,4.293 9.743,5.352 v 0.494 c 0,0.859 -1.936,1.288 -5.807,1.288 h -13.384 c -16.731,0.66 -26.115,3.831 -28.148,9.513 v 1.784 c 0,5.746 14.468,10.701 43.402,14.862 0,0.263 2.525,0.858 7.579,1.784 v 0.891 c -17.913,1.254 -26.869,4.095 -26.869,8.523 v 0.494 c 1.312,2.577 3.871,4.524 7.677,5.846 10.694,1.321 16.042,2.807 16.042,4.459 0,0.263 -0.59,1.155 -1.771,2.675 z"
               style="fill:#231f20;fill-opacity:1;fill-rule:nonzero;stroke:none"
               id="path106"
               inkscape:connector-curvature="0" />
          </g>
        </g>
      </g>
    </g>
  </g>
</svg>
